<svg width="1911" height="1899" xmlns="http://www.w3.org/2000/svg" xmlns:xlink="http://www.w3.org/1999/xlink" xml:space="preserve" overflow="hidden"><defs><clipPath id="clip0"><rect x="232" y="282" width="1911" height="1899"/></clipPath></defs><g clip-path="url(#clip0)" transform="translate(-232 -282)"><path d="M1187.94 282C1715.41 282 2143 709.703 2143 1237.3 2143.01 1677.92 1842.67 2057.2 1422.73 2163.45L1337.34 2180.97 1337.34 1513.38 1559.73 1513.38 1559.87 1513.38 1602.16 1237.3 1602.03 1237.3 1602.03 1237.3 1337.34 1237.3 1337.34 1058.11C1337.34 982.645 1374.18 908.95 1492.88 908.95L1613.35 908.95 1613.35 673.81 1613.21 673.788 1613.21 673.673C1613.21 673.673 1503.93 654.977 1399.42 654.977 1181.12 654.977 1038.68 787.354 1038.68 1026.72L1038.68 1237.3 796.367 1237.3 796.367 1237.3 796.367 1237.3 796.367 1513.38 796.367 1513.38 1038.68 1513.38 1038.68 2181C573.879 2107.88 231.566 1707.05 232 1236.42 232.488 708.82 660.477 281.513 1187.94 282Z" fill="#1877F2" fill-rule="evenodd"/></g></svg>