<svg width="1911" height="1953" xmlns="http://www.w3.org/2000/svg" xmlns:xlink="http://www.w3.org/1999/xlink" xml:space="preserve" overflow="hidden"><defs><clipPath id="clip0"><rect x="2257" y="261" width="1911" height="1953"/></clipPath></defs><g clip-path="url(#clip0)" transform="translate(-2257 -261)"><path d="M2656.69 1237.65C2656.69 1174.21 2667.21 1113.4 2686 1056.35L2357.19 805C2293.11 935.25 2257 1082.01 2257 1237.65 2257 1393.16 2293.06 1539.84 2357.06 1670L2685.69 1418.16C2667.08 1361.38 2656.69 1300.78 2656.69 1237.65" fill="#FBBC05" fill-rule="evenodd"/><path d="M3234.53 660.363C3372.32 660.363 3496.77 709.177 3594.55 789.05L3879 505.056C3705.66 354.185 3483.43 261 3234.53 261 2848.13 261 2516.03 481.938 2357 804.758L2686.08 1056C2761.9 825.879 2978.04 660.363 3234.53 660.363" fill="#EB4335" fill-rule="evenodd"/><path d="M3234.75 1814.64C2978.2 1814.64 2762 1649.12 2686.16 1419L2357 1670.2C2516.07 1993.06 2848.25 2214 3234.75 2214 3473.31 2214 3701.06 2129.34 3872 1970.7L3559.56 1729.26C3471.4 1784.77 3360.39 1814.64 3234.75 1814.64" fill="#34A853" fill-rule="evenodd"/><path d="M4168 1237.42C4168 1179.75 4159.11 1117.66 4145.79 1060L3235 1060 3235 1437.01 3759.26 1437.01C3733.05 1565.54 3661.69 1664.36 3559.6 1728.67L3871.84 1970C4051.28 1803.5 4168 1555.48 4168 1237.42" fill="#4285F4" fill-rule="evenodd"/></g></svg>